<?xml version="1.0" encoding="iso-8859-1"?>
<!-- Generator: Adobe Illustrator 19.0.0, SVG Export Plug-In . SVG Version: 6.00 Build 0)  -->
<svg version="1.1" id="Layer_1" xmlns="http://www.w3.org/2000/svg" xmlns:xlink="http://www.w3.org/1999/xlink" x="0px" y="0px"
	 viewBox="0 0 329.343 329.343" style="enable-background:new 0 0 329.343 329.343;" xml:space="preserve">
<g>
	<path style="fill:#30BAA1;" d="M225.397,86c-4.015,4.576-9.902,7.469-16.469,7.469c-12.099,0-21.908-9.808-21.908-21.908
		s9.808-21.907,21.908-21.907c1.9,0,3.743,0.242,5.501,0.697C202.521,24.242,184.149,7.5,163.533,7.5
		c-35.898,0-65,50.751-65,113.356s29.102,113.356,65,113.356c13.957,0,26.886-7.674,37.477-20.731
		c-11.315-1.144-20.147-10.697-20.147-22.314c0-12.387,10.042-22.429,22.429-22.429c6.745,0,12.79,2.981,16.901,7.693
		c5.308-16.422,8.339-35.379,8.339-55.574C228.533,108.694,227.43,96.982,225.397,86z M114.2,144.385
		c-8.555,0-15.491-6.936-15.491-15.491s6.935-15.491,15.491-15.491s15.491,6.936,15.491,15.491S122.756,144.385,114.2,144.385z"/>
	<polygon style="fill:#F59D00;" points="207.348,321.842 119.718,321.842 111.413,234.212 215.653,234.212 	"/>
	<circle style="fill:#CBE5C0;" cx="208.929" cy="71.561" r="21.907"/>
	<circle style="fill:#CBE5C0;" cx="114.2" cy="128.894" r="15.491"/>
	<g>
		<circle style="fill:#CBE5C0;" cx="203.293" cy="191.166" r="22.429"/>
		<path style="fill:#414042;" d="M233.343,87.935c3.151-4.683,4.993-10.318,4.993-16.374c0-12.357-7.665-22.95-18.486-27.296
			C206.147,16.085,185.753,0,163.533,0c-20.164,0-38.798,13.13-52.468,36.97c-32.817,57.231-24.136,151.732,17.076,189.742h-16.728
			c-4.429,0-7.883,3.818-7.467,8.208l2.792,29.464c0.001,0.004,0.001,0.007,0.001,0.011l5.511,58.155
			c0.365,3.851,3.599,6.793,7.467,6.793h87.631c3.868,0,7.102-2.941,7.467-6.793c0.722-7.621,5.979-63.084,8.305-87.63
			c0.416-4.392-3.04-8.208-7.467-8.208H198.87c1.889-1.741,3.74-3.613,5.538-5.645c15.987-0.59,28.813-13.772,28.813-29.901
			c0-5.942-1.748-11.48-4.746-16.142C236.216,148.918,238.32,117.797,233.343,87.935z M208.929,85.968
			c-7.944,0-14.407-6.463-14.407-14.407s6.462-14.407,14.407-14.407c0.008,0,0.017,0.001,0.025,0.001
			c7.901,0.015,14.382,6.445,14.382,14.406C223.336,79.509,216.808,85.968,208.929,85.968z M114.2,120.903
			c4.406,0,7.991,3.585,7.991,7.991c0,4.406-3.585,7.991-7.991,7.991s-7.99-3.584-7.99-7.991
			C106.21,124.489,109.793,120.903,114.2,120.903z M108.461,151.16c14.561,3.757,28.73-7.307,28.73-22.266
			c0-12.677-10.313-22.991-22.991-22.991c-2.686,0-5.391,0.502-7.688,1.322c1.686-23.794,7.774-45.719,17.565-62.794
			C134.961,25.453,148.973,15,163.533,15c14.27,0,27.969,10.043,38.6,27.946c-13.208,3.142-22.611,15.02-22.611,28.615
			c0,20.643,20.889,35.016,40.24,27.336c2.548,21.7,1.266,44.547-3.836,65.141c-3.916-1.824-8.273-2.801-12.633-2.801
			c-16.503,0-29.93,13.426-29.93,29.929c0,10.351,5.326,20.058,14.227,25.519c-4.591,3.997-10.154,7.483-16.558,9.086V93.468
			c0-4.142-3.357-7.5-7.5-7.5s-7.5,3.358-7.5,7.5v132.306C128.866,219.004,113.286,180.437,108.461,151.16z M126.541,314.342
			l-4.096-43.219h82.177l-4.096,43.219H126.541z M207.409,241.712l-1.366,14.411h-85.02l-1.366-14.411L207.409,241.712
			L207.409,241.712z M203.293,206.095c-8.195,0-14.93-6.664-14.93-14.929c0-8.232,6.697-14.929,14.93-14.929
			c8.131,0,14.929,6.65,14.929,14.929C218.222,199.398,211.524,206.095,203.293,206.095z"/>
	</g>
</g>
<g>
</g>
<g>
</g>
<g>
</g>
<g>
</g>
<g>
</g>
<g>
</g>
<g>
</g>
<g>
</g>
<g>
</g>
<g>
</g>
<g>
</g>
<g>
</g>
<g>
</g>
<g>
</g>
<g>
</g>
</svg>
