<?xml version="1.0" encoding="iso-8859-1"?>
<!-- Generator: Adobe Illustrator 19.0.0, SVG Export Plug-In . SVG Version: 6.00 Build 0)  -->
<svg version="1.1" id="Layer_1" xmlns="http://www.w3.org/2000/svg" xmlns:xlink="http://www.w3.org/1999/xlink" x="0px" y="0px"
	 viewBox="0 0 512 512" style="enable-background:new 0 0 512 512;" xml:space="preserve">
<path style="fill:#B27214;" d="M256.003,166.965c-5.485,0-9.932-4.447-9.932-9.932v-29.968c0-35.247,17.457-68.082,46.697-87.833
	c4.546-3.071,10.72-1.875,13.79,2.671c3.071,4.546,1.875,10.72-2.671,13.79c-23.764,16.053-37.951,42.734-37.951,71.373v29.968
	C265.935,162.518,261.488,166.965,256.003,166.965z"/>
<path style="fill:#9AD14B;" d="M255.407,110.114c-60.811,0-110.114-49.303-110.114-110.114c30.405,0,57.937,12.329,77.867,32.259
	C243.078,52.177,255.407,79.708,255.407,110.114z"/>
<path style="fill:#F95428;" d="M293.506,137.698c109.412,0,185.65,108.604,148.478,211.514l-33.796,93.507
	c-2.794,7.734-6.41,15.017-10.727,21.745c-5.906,9.177-13.137,17.348-21.361,24.261h-0.013
	c-7.442,6.264-15.706,11.495-24.565,15.574c-20.685,9.482-44.35,10.078-65.777,2.49c-5.072-1.788-10.25-3.099-15.494-3.96
	c-4.714-0.768-9.495-1.139-14.249-1.139c-10.065,0-20.116,1.695-29.743,5.098c-7.138,2.516-14.501,4.145-21.93,4.834
	c-14.911,1.377-30.048-0.993-43.847-7.323c-25.837-11.852-46.588-33.676-56.679-61.579l-33.782-93.507
	c-37.186-102.91,39.053-211.514,148.465-211.514h37.517L293.506,137.698L293.506,137.698z"/>
<path style="fill:#E54728;" d="M193.854,442.719l-33.782-93.507c-36.328-100.535,35.601-206.484,140.949-211.323
	c-2.488-0.114-4.99-0.192-7.515-0.192h-37.504h-37.517c-109.412,0-185.65,108.604-148.465,211.514l33.782,93.507
	c10.091,27.903,30.842,49.727,56.679,61.579c13.799,6.33,28.935,8.701,43.847,7.323c7.429-0.689,14.792-2.317,21.93-4.834
	c6.531-2.308,13.26-3.811,20.054-4.553C222.447,490.009,203.389,469.083,193.854,442.719z"/>
<path style="fill:#90BC42;" d="M255.407,110.114c-60.811,0-110.114-49.303-110.114-110.114L255.407,110.114z"/>
<g>
</g>
<g>
</g>
<g>
</g>
<g>
</g>
<g>
</g>
<g>
</g>
<g>
</g>
<g>
</g>
<g>
</g>
<g>
</g>
<g>
</g>
<g>
</g>
<g>
</g>
<g>
</g>
<g>
</g>
</svg>
