<?xml version="1.0" encoding="iso-8859-1"?>
<!-- Generator: Adobe Illustrator 19.0.0, SVG Export Plug-In . SVG Version: 6.00 Build 0)  -->
<svg xmlns="http://www.w3.org/2000/svg" xmlns:xlink="http://www.w3.org/1999/xlink" version="1.1" id="Layer_1" x="0px" y="0px" viewBox="0 0 413.953 413.953" style="enable-background:new 0 0 413.953 413.953;" xml:space="preserve" width="512" height="512">
<g>
	<path style="fill:#9AD14B;" d="M330.81,7.5c0,30.1-12.2,57.34-31.92,77.06c-19.73,19.72-46.97,31.92-77.07,31.92   C221.82,56.29,270.62,7.5,330.81,7.5z"/>
	<path style="fill:#F95428;" d="M206.97,276.56c10.63-16.27,26.2-26.54,43.54-26.54c12.44,0,23.95,5.3,33.4,14.29   c9.44-8.99,20.95-14.29,33.39-14.29c32.04,0,58,35.02,58,78.22c0,43.19-25.96,78.21-58,78.21c-1.86,0-3.71-0.12-5.53-0.35   c-18.53-2.37-37.2-2.37-55.73,0c-1.82,0.23-3.66,0.35-5.53,0.35c-17.34,0-32.91-10.27-43.53-26.54   c-9.01-13.78-14.47-31.86-14.47-51.67C192.51,308.43,197.97,290.34,206.97,276.56z"/>
	<g>
		<path style="fill:#E54728;" d="M257.977,379.91c-9.01-13.78-14.47-31.86-14.47-51.67s5.46-37.9,14.46-51.68    c5.017-7.679,11.135-14.02,18.02-18.577c-7.692-5.09-16.331-7.963-25.478-7.963c-17.34,0-32.91,10.27-43.54,26.54    c-9,13.78-14.46,31.87-14.46,51.68s5.46,37.89,14.47,51.67c10.62,16.27,26.19,26.54,43.53,26.54c1.87,0,3.71-0.12,5.53-0.35    c10.711-1.37,21.468-1.922,32.219-1.708C276.325,400.629,265.805,391.903,257.977,379.91z"/>
	</g>
	<path style="fill:#F95428;" d="M206.98,379.91c-3.51,5.36-7.54,10.07-12,13.97c-9.08,7.96-19.9,12.57-31.53,12.57   c-1.88,0-3.72-0.11-5.53-0.35c-18.53-2.37-37.21-2.37-55.73,0c-1.82,0.24-3.67,0.35-5.53,0.35c-32.04,0-58.01-35.01-58.01-78.22   c0-43.19,25.97-78.2,58.01-78.2c12.43,0,23.95,5.29,33.39,14.28c9.45-8.99,20.95-14.28,33.4-14.28c11.63,0,22.45,4.61,31.52,12.56   c4.46,3.9,8.5,8.61,12,13.97c-9,13.78-14.46,31.87-14.46,51.68S197.97,366.13,206.98,379.91z"/>
	<g>
		<path style="fill:#E54728;" d="M104.117,379.91c-9.01-13.78-14.47-31.86-14.47-51.67s5.46-37.9,14.46-51.68    c5.017-7.679,11.135-14.02,18.02-18.577c-7.692-5.09-16.331-7.963-25.478-7.963c-17.34,0-32.91,10.27-43.54,26.54    c-9,13.78-14.46,31.87-14.46,51.68s5.46,37.89,14.47,51.67c10.62,16.27,26.19,26.54,43.53,26.54c1.87,0,3.71-0.12,5.53-0.35    c10.711-1.37,21.468-1.922,32.219-1.708C122.465,400.629,111.945,391.903,104.117,379.91z"/>
	</g>
	<path style="fill:#E54728;" d="M206.98,379.91c-3.51,5.36-7.54,10.07-12,13.97c-4.46-3.9-8.5-8.61-12-13.97   c-9.01-13.78-14.47-31.86-14.47-51.67s5.46-37.9,14.46-51.68c3.5-5.36,7.54-10.07,12-13.97c4.46,3.9,8.5,8.61,12,13.97   c-9,13.78-14.46,31.87-14.46,51.68S197.97,366.13,206.98,379.91z"/>
	<path style="fill:#FFFFFF;" d="M350.573,352.245c-0.519,0-1.045-0.055-1.573-0.167c-4.051-0.865-6.633-4.85-5.769-8.9   c1.042-4.878,1.569-9.903,1.569-14.938c0-22.068-12.013-47.721-27.5-47.721c-4.142,0-7.5-3.357-7.5-7.5s3.358-7.5,7.5-7.5   c23.038,0,42.5,28.723,42.5,62.721c0,6.085-0.639,12.164-1.899,18.068C357.148,349.832,354.035,352.245,350.573,352.245z"/>
	<path style="fill:#90BC42;" d="M330.81,7.5L221.82,116.48C221.82,56.29,270.62,7.5,330.81,7.5z"/>
	<circle style="fill:#FFFFFF;" cx="162.146" cy="271.047" r="7.5"/>
	<circle style="fill:#FFFFFF;" cx="341.928" cy="367.234" r="7.5"/>
	<path style="fill:#333333;" d="M364.339,268.464c-12.405-16.729-29.11-25.941-47.038-25.941c-9.591,0-18.874,2.662-27.385,7.781   c-2.522-17.369-9.186-49.232-26.461-83.616c-7.925-15.774-17.233-30.31-27.814-43.528C293.38,116.304,338.306,67.054,338.306,7.5   c0-4.143-3.358-7.5-7.5-7.5c-58.965,0-107.832,44.042-115.446,100.958c-3.446-3.306-6.98-6.513-10.625-9.589   c-30.045-25.358-66.834-42.82-109.347-51.901c-4.049-0.864-8.036,1.719-8.901,5.769c-0.865,4.051,1.717,8.036,5.768,8.901   c39.947,8.532,74.446,24.84,102.536,48.469c4.317,3.631,8.485,7.442,12.505,11.419c-27.697,19.155-50.757,49.787-67.033,89.22   c-8.008,19.401-12.693,36.721-15.196,47.702c-8.791-5.532-18.434-8.42-28.413-8.42c-17.929,0-34.635,9.212-47.041,25.938   c-11.907,16.055-18.464,37.281-18.464,59.77c0,22.493,6.558,43.723,18.464,59.779c12.405,16.728,29.111,25.939,47.041,25.939   c2.182,0,4.366-0.139,6.481-0.412c17.86-2.282,35.972-2.283,53.821-0.001c2.125,0.274,4.309,0.413,6.491,0.413   c16.205,0,31.646-7.749,43.538-21.572c11.963,13.941,27.233,21.571,43.524,21.571c2.16,0,4.34-0.139,6.483-0.412   c17.857-2.285,35.966-2.285,53.827,0c2.141,0.273,4.321,0.412,6.48,0.412c17.928,0,34.633-9.213,47.038-25.941   c11.907-16.056,18.464-37.284,18.464-59.773S376.246,284.52,364.339,268.464z M323.01,15.297   c-3.798,49.755-43.634,89.591-93.39,93.389C233.418,58.931,273.254,19.095,323.01,15.297z M217.707,125.093   c12.422,14.173,23.167,30.165,32.088,47.821c15.137,29.958,21.754,58.373,24.587,75.439c-7.529-3.841-15.585-5.831-23.872-5.831   c-16.292,0-31.563,7.631-43.526,21.574c-11.892-13.821-27.332-21.57-43.536-21.57c-7.639,0-15.081,1.695-22.095,4.967   c2.598-10.153,6.677-23.749,12.776-38.526C165.109,182.369,184.918,146.872,217.707,125.093z M163.448,398.953   c-1.542,0-3.08-0.098-4.58-0.291c-19.122-2.443-38.512-2.442-57.643,0.001c-1.491,0.192-3.028,0.29-4.571,0.29   c-27.849,0-50.505-31.725-50.505-70.719c0-38.988,22.657-70.708,50.505-70.708c10.067,0,19.828,4.225,28.227,12.218   c2.896,2.756,7.444,2.756,10.341,0c8.399-7.993,18.16-12.218,28.226-12.218c12.807,0,25.194,7.006,34.56,19.35   c-8.423,14.734-13,32.603-13,51.361c0,18.759,4.577,36.629,13.001,51.364C188.644,391.946,176.256,398.953,163.448,398.953z    M317.301,398.952c-1.526,0-3.068-0.098-4.579-0.291c-9.562-1.224-19.188-1.835-28.817-1.835c-9.626,0-19.255,0.611-28.814,1.835   c-1.513,0.193-3.054,0.291-4.581,0.291c-14.519,0-27.617-8.635-36.838-22.417c-0.255-0.506-0.564-0.989-0.935-1.433   c-7.911-12.487-12.729-28.9-12.729-46.866c0-38.992,22.655-70.715,50.502-70.715c10.066,0,19.826,4.225,28.225,12.218   c2.896,2.756,7.444,2.755,10.341-0.001c8.398-7.992,18.158-12.217,28.225-12.217c27.847,0,50.502,31.723,50.502,70.715   S345.148,398.952,317.301,398.952z"/>
</g>















</svg>
