<?xml version="1.0" encoding="iso-8859-1"?>
<!-- Generator: Adobe Illustrator 19.0.0, SVG Export Plug-In . SVG Version: 6.00 Build 0)  -->
<svg version="1.1" id="Layer_1" xmlns="http://www.w3.org/2000/svg" xmlns:xlink="http://www.w3.org/1999/xlink" x="0px" y="0px"
	 viewBox="0 0 500.448 500.448" style="enable-background:new 0 0 500.448 500.448;" xml:space="preserve">
<path style="fill:#40596B;" d="M372.477,292.556c-4.18,0-8.359-3.135-9.404-7.314C339.04,147.316,263.808,74.173,231.416,49.095
	c-4.18,159.869-92.996,238.237-97.176,241.371c-4.18,3.135-9.404,3.135-13.584-1.045c-3.135-4.18-3.135-9.404,1.045-13.584
	c1.045-1.045,92.996-82.547,89.861-245.551c0-3.135,2.09-6.269,5.224-8.359s6.269-2.09,9.404,0
	c6.269,3.135,123.298,76.278,155.69,259.135c1.045,5.224-2.09,10.449-7.314,10.449C373.522,292.556,372.477,292.556,372.477,292.556
	z"/>
<g>
	<path style="fill:#FF7058;" d="M391.285,266.434L391.285,266.434c-12.539,10.449-30.302,12.539-45.976,7.314l0,0
		c-18.808-6.269-39.706-1.045-52.245,13.584c-21.943,25.078-32.392,59.559-27.167,94.041
		c10.449,63.739,71.053,107.624,134.792,97.175c64.784-10.449,108.669-70.008,98.22-134.792
		c-5.224-35.527-26.122-63.739-54.335-81.502C427.857,252.85,406.959,253.895,391.285,266.434z"/>
	<path style="fill:#FF7058;" d="M109.163,266.434L109.163,266.434c12.539,10.449,30.302,12.539,45.976,7.314l0,0
		c18.808-6.269,39.706-1.045,52.245,13.584c21.943,25.078,32.392,59.559,27.167,94.041
		c-10.449,63.739-71.053,107.624-134.792,97.175C34.975,468.099-8.911,408.54,1.538,343.756
		c5.224-35.527,26.122-63.739,54.335-81.502C72.591,252.85,93.489,253.895,109.163,266.434z"/>
</g>
<g>
	
		<ellipse transform="matrix(-0.7998 -0.6003 0.6003 -0.7998 -122.7734 598.8154)" style="fill:#FFFFFF;" cx="38.476" cy="319.882" rx="14.629" ry="32.392"/>
	
		<ellipse transform="matrix(-0.7998 -0.6003 0.6003 -0.7998 371.7743 763.7272)" style="fill:#FFFFFF;" cx="313.251" cy="319.864" rx="14.629" ry="32.392"/>
</g>
<path style="fill:#4CDBC4;" d="M195.889,29.242C125.881,18.793,60.052,66.858,48.559,136.867l-4.18,28.212L224.101,34.467
	L195.889,29.242z"/>
<path style="fill:#3DC9AE;" d="M218.877,61.634l5.224-27.167L44.379,165.079l28.212,4.18
	C142.599,180.752,208.428,132.687,218.877,61.634z"/>
<g>
</g>
<g>
</g>
<g>
</g>
<g>
</g>
<g>
</g>
<g>
</g>
<g>
</g>
<g>
</g>
<g>
</g>
<g>
</g>
<g>
</g>
<g>
</g>
<g>
</g>
<g>
</g>
<g>
</g>
</svg>
