<?xml version="1.0" encoding="iso-8859-1"?>
<!-- Generator: Adobe Illustrator 19.0.0, SVG Export Plug-In . SVG Version: 6.00 Build 0)  -->
<svg version="1.1" id="Layer_1" xmlns="http://www.w3.org/2000/svg" xmlns:xlink="http://www.w3.org/1999/xlink" x="0px" y="0px"
	 viewBox="0 0 511.989 511.989" style="enable-background:new 0 0 511.989 511.989;" xml:space="preserve">
<path style="fill:#FFCE54;" d="M282.065,501.66c-4.062,0-8.202-0.078-12.577-0.156c-4.531-0.094-9.219-0.172-14.017-0.172
	c-4.796,0-9.483,0.078-14.03,0.172c-4.375,0.078-8.516,0.156-12.562,0.156c-22.109,0-36.952-2.546-47.483-15.608
	c-13.312-16.531-19.781-49.906-19.781-102.061c0-67.702,3.078-164.825,17.75-243.05c7.75-41.397,18-73.553,30.437-95.584
	c13.188-23.343,28.125-34.694,45.671-34.694c17.548,0,32.484,11.352,45.671,34.694c12.438,22.031,22.672,54.187,30.438,95.584
	c14.656,78.225,17.75,175.348,17.75,243.05c0,52.139-6.469,85.529-19.797,102.061C319.017,499.114,304.158,501.66,282.065,501.66z"
	/>
<path style="fill:#F6BB42;" d="M172.302,385.835c-0.016-0.625-0.016-1.219-0.016-1.844c0-31.391,0.641-59.765,1.703-85.326h16.188
	c-0.203,6.859-0.375,13.843-0.5,20.983l21.343,0.359c0.125-7.266,0.281-14.374,0.5-21.343h31.141v21.327h-30.922v21.344h30.922
	v42.405h21.328v-42.405h28.187v-21.344h-28.187v-21.327h31.124c0.047,1.188,0.094,2.391,0.125,3.594l21.312-0.609
	c-0.031-1-0.062-2-0.094-2.984h3.281v-21.328h-4.078c-0.328-7.289-0.703-14.406-1.125-21.343h20.047
	c3.172,46.125,4.078,91.388,4.078,127.998c0,0.625-0.016,1.219-0.016,1.844h21.344c0-0.609,0-1.219,0-1.844
	c0-79.732-4.125-191.66-24.141-274.111v-3.219h-0.797c-3.641-14.57-7.797-28.187-12.531-40.483v-2.18h-0.859
	C306.284,25.164,284.957,0,255.472,0c-39.249,0-64.045,44.585-79.576,106.662h-0.734v2.953
	c-20.077,82.475-24.202,194.566-24.202,274.377c0,0.625,0,1.234,0,1.844h21.342V385.835z M332.955,234.658h-19.891
	c-0.562-7.312-1.172-14.421-1.828-21.328h19.75C331.705,220.409,332.361,227.533,332.955,234.658z M325.705,170.66
	c1.031,7.023,2,14.14,2.875,21.335h-19.562c-0.844-7.375-1.719-14.484-2.656-21.335L325.705,170.66L325.705,170.66z M321.096,142.91
	c0.391,2.125,0.797,4.266,1.172,6.422h-19c-1.156-7.477-2.375-14.586-3.594-21.335h18.438
	C319.142,132.816,320.142,137.785,321.096,142.91z M313.017,106.661h-17.53c-1.594-7.695-3.219-14.797-4.812-21.328h16.03
	C308.924,91.966,311.033,99.083,313.017,106.661z M273.363,27.702c6.437,4.883,12.655,12.585,18.483,22.906
	c2.297,4.078,4.547,8.555,6.687,13.391H285.05c-4.312-15.219-8.469-27.312-12.03-36.539
	C273.144,27.537,273.254,27.616,273.363,27.702z M263.988,85.333h4.688c1.672,6.602,3.344,13.711,5,21.328h-9.688V85.333z
	 M263.988,127.996h13.999c1.281,6.773,2.531,13.882,3.719,21.335h-17.718V127.996z M263.988,170.66h20.89
	c0.953,6.859,1.844,13.968,2.703,21.335h-23.593V170.66z M263.988,213.33h25.843c0.656,6.906,1.281,14.015,1.859,21.328h-27.702
	V213.33z M263.988,255.994h29.187c0.422,6.937,0.812,14.054,1.125,21.343h-30.312V255.994z M242.66,277.337h-30.312
	c0.328-7.297,0.719-14.414,1.141-21.343h29.172v21.343H242.66z M242.66,234.658h-27.672c0.578-7.328,1.188-14.437,1.875-21.328
	h25.797V234.658z M242.66,191.995h-23.547c0.844-7.391,1.75-14.5,2.688-21.335h20.859V191.995z M242.66,149.332h-17.688
	c1.203-7.508,2.438-14.617,3.703-21.335h13.984v21.335H242.66z M237.957,85.333h4.703v21.328h-9.703
	C234.644,98.872,236.332,91.77,237.957,85.333z M219.082,50.607c3.969-7.008,8.094-12.805,12.375-17.335
	c-3.031,8.32-6.391,18.515-9.859,30.726h-9.203C214.551,59.162,216.785,54.685,219.082,50.607z M204.224,85.333h11.765
	c-1.594,6.516-3.219,13.625-4.844,21.328h-13.233C199.895,99.083,202.02,91.966,204.224,85.333z M189.849,142.91
	c0.953-5.125,1.953-10.094,2.984-14.914h14.155c-1.233,6.75-2.437,13.859-3.608,21.335h-14.703
	C189.067,147.113,189.458,144.965,189.849,142.91z M185.239,170.66h15.031c-0.906,6.851-1.781,13.96-2.625,21.335h-15.281
	C183.302,184.37,184.27,177.261,185.239,170.66z M179.989,213.33h15.438c-0.656,6.898-1.266,14.007-1.844,21.328h-15.594
	C178.614,227.205,179.286,220.096,179.989,213.33z M176.349,255.994h15.766c-0.406,6.945-0.781,14.046-1.125,21.343h-15.969
	C175.427,269.954,175.88,262.845,176.349,255.994z"/>
<path style="fill:#8CC153;" d="M281.362,509.254c0,0-25.344,4.875-53.812,1.609c-30.28-3.484-52.999-9.516-64.702-26.874
	c-22.702-33.656-45.515-249.331-45.515-249.331S292.425,332.976,281.362,509.254z"/>
<g style="opacity:0.1;">
	<path d="M205.864,507.535c6.687,1.375,13.937,2.438,21.687,3.328c0.531,0.062,1.047,0.109,1.562,0.172
		c14.562-0.297,34.031-1.406,52.405-4.766c3.031-59.327-14.999-109.731-40.124-150.419
		C218.738,400.819,203.145,452.489,205.864,507.535z"/>
</g>
<path style="fill:#A0D468;" d="M227.379,510.848c0,0,103.67,5.078,126.373-28.577c22.702-33.672,40.904-290.275,40.904-290.275
	S216.332,334.57,227.379,510.848z"/>
<g style="opacity:0.2;">
	<path style="fill:#FFFFFF;" d="M371.766,212.393c-4.844,61.413-20.562,242.002-39.343,269.877
		c-15.516,22.999-68.873,27.905-101.076,28.702c19.203,0.531,102.357,1.016,122.404-28.702
		c22.702-33.672,40.904-290.275,40.904-290.275S385.641,199.214,371.766,212.393z"/>
</g>
<g>
</g>
<g>
</g>
<g>
</g>
<g>
</g>
<g>
</g>
<g>
</g>
<g>
</g>
<g>
</g>
<g>
</g>
<g>
</g>
<g>
</g>
<g>
</g>
<g>
</g>
<g>
</g>
<g>
</g>
</svg>
