<svg xmlns="http://www.w3.org/2000/svg" width="91.21000000000001" height="35" viewBox="0 0 91.21000000000001 35"><rect class="svg__rect" x="0" y="0" width="91.21000000000001" height="35" fill="#003F53"/><rect class="svg__rect" x="91.21000000000001" y="0" width="0" height="35" fill="#68B92D"/><path class="svg__text" d="M15.70 22L14.22 22L14.22 13.47L19.64 13.47L19.64 14.66L15.70 14.66L15.70 17.20L19.13 17.20L19.13 18.38L15.70 18.38L15.70 22ZM29.15 22L23.80 22L23.80 13.47L25.28 13.47L25.28 20.82L29.15 20.82L29.15 22ZM33.14 19.16L33.14 19.16L33.14 13.47L34.62 13.47L34.62 19.18Q34.62 20.03 35.05 20.48Q35.49 20.93 36.33 20.93L36.33 20.93Q38.04 20.93 38.04 19.13L38.04 19.13L38.04 13.47L39.52 13.47L39.52 19.17Q39.52 20.53 38.65 21.32Q37.78 22.12 36.33 22.12L36.33 22.12Q34.87 22.12 34.00 21.33Q33.14 20.55 33.14 19.16ZM45.77 14.66L43.13 14.66L43.13 13.47L49.90 13.47L49.90 14.66L47.24 14.66L47.24 22L45.77 22L45.77 14.66ZM55.34 14.66L52.70 14.66L52.70 13.47L59.47 13.47L59.47 14.66L56.81 14.66L56.81 22L55.34 22L55.34 14.66ZM68.80 22L63.23 22L63.23 13.47L68.76 13.47L68.76 14.66L64.71 14.66L64.71 17.02L68.21 17.02L68.21 18.19L64.71 18.19L64.71 20.82L68.80 20.82L68.80 22ZM74.48 22L73.00 22L73.00 13.47L76.00 13.47Q77.47 13.47 78.28 14.13Q79.08 14.79 79.08 16.05L79.08 16.05Q79.08 16.90 78.67 17.48Q78.25 18.06 77.52 18.37L77.52 18.37L79.43 21.92L79.43 22L77.84 22L76.13 18.71L74.48 18.71L74.48 22ZM74.48 14.66L74.48 17.52L76.00 17.52Q76.75 17.52 77.18 17.15Q77.60 16.77 77.60 16.11L77.60 16.11Q77.60 15.43 77.21 15.05Q76.82 14.68 76.05 14.66L76.05 14.66L74.48 14.66Z" fill="#FFFFFF"/><path class="svg__text" d="" fill="#FFFFFF" x="104.21000000000001"/></svg>