<?xml version="1.0" encoding="iso-8859-1"?>
<!-- Generator: Adobe Illustrator 19.0.0, SVG Export Plug-In . SVG Version: 6.00 Build 0)  -->
<svg version="1.1" id="Layer_1" xmlns="http://www.w3.org/2000/svg" xmlns:xlink="http://www.w3.org/1999/xlink" x="0px" y="0px"
	 viewBox="0 0 511.998 511.998" style="enable-background:new 0 0 511.998 511.998;" xml:space="preserve">
<ellipse style="fill:#8460C8;" cx="213.923" cy="438.47" rx="65.841" ry="73.528"/>
<path style="opacity:0.08;enable-background:new    ;" d="M213.926,364.943c-26.116,0-48.679,16.983-59.32,41.601
	c12.017,14.389,29.134,23.397,48.141,23.397c0.146,0,0.292-0.011,0.438-0.012c8.067,30.421,33.264,52.622,63.119,52.622
	c0.108,0,0.215-0.009,0.323-0.009c8.246-12.282,13.133-27.537,13.133-44.07C279.761,397.864,250.286,364.943,213.926,364.943z"/>
<ellipse style="fill:#9C7CD3;" cx="283.258" cy="385.35" rx="65.841" ry="73.528"/>
<path style="opacity:0.08;enable-background:new    ;" d="M283.258,311.817c-28.698,0-53.094,20.516-62.107,49.126
	c11.739,20.172,32.08,33.523,55.226,33.523c28.698,0,53.094-20.516,62.107-49.126C326.745,325.169,306.404,311.817,283.258,311.817z
	"/>
<ellipse style="fill:#9C7CD3;" cx="300.357" cy="192.85" rx="65.841" ry="73.528"/>
<path style="fill:#00A155;" d="M357.226,140.791c0,0-1.076-7.108-4.78-14.82c11.899,1.758,23.394-2.194,23.394-2.194
	s-1.296-8.574-5.951-17.107c6.229-8.501,9.521-15.232,9.521-15.232s-6.038-4.452-15.5-9.113c0.2-9.753-2.629-18-2.629-18
	s-12.38,1.87-22.193,9.197c-5.266-1.114-10.78-1.772-16.385-1.683c1.477-4.788,2.362-9.675,2.821-14.494
	c10.707-7.08,16.661-19.255,16.661-19.255s-7.819-5.764-17.963-8.342c-1.833-10.607-4.485-17.834-4.485-17.834
	s-7.584,1.317-17.688,5.033c-7.304-7.496-16.205-11.385-16.205-11.385s-7.568,11.244-8.345,24.057
	c-3.943,2.807-7.733,6.016-11.141,9.691c-2.724-4.898-6.051-9.344-9.649-13.348c1.439-12.161-3.132-23.817-3.132-23.817
	s-8.557,1.673-16.902,6.723C227.908,3.003,221.033,0,221.033,0s-4.183,6.216-8.43,15.862c-9.717,0.235-17.789,3.4-17.789,3.4
	s2.326,11.93,9.798,21.356c-8.531,0.647-15.225,3.27-15.225,3.27s3.805,19.485,17.297,28.325
	c10.727,32.321,54.139,41.749,54.139,41.749s29.872,32.882,63.226,26.011C338.449,147.238,357.226,140.791,357.226,140.791z"/>
<path style="fill:#006539;" d="M310.828,144.983c0,0-4.485-5.618-11.55-10.445c11.184-4.428,19.163-13.596,19.163-13.596
	s-5.409-6.777-13.707-11.839c1.144-10.477,0.63-17.952,0.63-17.952s-7.455-0.836-17.98-0.142
	c-4.703-8.546-11.277-14.273-11.277-14.273s-9.786,7.81-14.62,19.061c-5.118,1.668-10.222,3.855-15.031,6.735
	c-1.114-4.885-2.792-9.559-4.803-13.962c5.732-11.486,4.801-25.006,4.801-25.006s-9.653-1.083-19.727,1.757
	c-6.891-8.269-12.801-13.202-12.801-13.202s-5.91,4.933-12.801,13.202c-10.074-2.84-19.727-1.757-19.727-1.757
	s-0.931,13.521,4.801,25.006c-2.01,4.402-3.688,9.077-4.803,13.963c-4.809-2.879-9.913-5.066-15.031-6.735
	c-4.835-11.251-14.62-19.061-14.62-19.061s-6.574,5.727-11.277,14.273c-10.526-0.694-17.98,0.142-17.98,0.142
	s-0.514,7.475,0.63,17.952c-8.297,5.062-13.706,11.839-13.706,11.839s7.978,9.17,19.163,13.596
	c-7.065,4.826-11.55,10.445-11.55,10.445s13.038,14.972,29.141,15.882c25.45,22.627,67.76,9.087,67.76,9.087
	s42.311,13.541,67.76-9.087C297.79,159.955,310.828,144.983,310.828,144.983z"/>
<ellipse style="fill:#8460C8;" cx="219.699" cy="332.731" rx="65.841" ry="73.528"/>
<path style="opacity:0.08;enable-background:new    ;" d="M219.701,259.208c-28.906,0-53.443,20.816-62.296,49.75
	c10.298,7.455,22.568,11.802,35.754,11.802c7.861,0,15.397-1.545,22.386-4.366c0.994,33.484,22.022,61.293,50.129,68.953
	c12.248-13.353,19.863-31.984,19.863-52.609C285.537,292.127,256.061,259.208,219.701,259.208z"/>
<ellipse style="fill:#9C7CD3;" cx="141.76" cy="277.515" rx="65.841" ry="73.528"/>
<ellipse style="fill:#8460C8;" cx="207.59" cy="225.573" rx="65.841" ry="73.528"/>
<path style="opacity:0.1;fill:#FFFFFF;enable-background:new    ;" d="M220.265,153.417c-9.061,6.276-14.999,16.741-14.999,28.598
	c0,19.204,15.568,34.771,34.771,34.771c12.416,0,23.305-6.512,29.457-16.303C261.708,176.531,243.096,158.389,220.265,153.417z"/>
<ellipse style="fill:#8460C8;" cx="370.238" cy="248.372" rx="65.841" ry="73.528"/>
<ellipse style="fill:#9C7CD3;" cx="295.76" cy="292.255" rx="65.841" ry="73.528"/>
<g>
	<path style="opacity:0.1;fill:#FFFFFF;enable-background:new    ;" d="M301.521,219.028c-7.887,6.932-12.871,17.089-12.871,28.415
		c0,20.891,16.936,37.827,37.827,37.827c13.167,0,24.758-6.731,31.533-16.936C349.717,241.419,327.842,221.579,301.521,219.028z"/>
	<path style="opacity:0.1;fill:#FFFFFF;enable-background:new    ;" d="M388.729,177.803c-9.067,6.214-15.019,16.644-15.019,28.466
		c0,19.048,15.441,34.49,34.49,34.49c10.179,0,19.324-4.411,25.636-11.423C427.908,204.571,410.698,184.97,388.729,177.803z"/>
</g>
<g>
</g>
<g>
</g>
<g>
</g>
<g>
</g>
<g>
</g>
<g>
</g>
<g>
</g>
<g>
</g>
<g>
</g>
<g>
</g>
<g>
</g>
<g>
</g>
<g>
</g>
<g>
</g>
<g>
</g>
</svg>
