<svg xmlns="http://www.w3.org/2000/svg" width="265.2" height="35" viewBox="0 0 265.2 35"><rect class="svg__rect" x="0" y="0" width="163.11" height="35" fill="#141616"/><rect class="svg__rect" x="161.11" y="0" width="104.08999999999997" height="35" fill="#68B92D"/><path class="svg__text" d="M15.69 22L14.22 22L14.22 13.47L16.14 13.47L18.60 20.01L21.06 13.47L22.97 13.47L22.97 22L21.49 22L21.49 19.19L21.64 15.43L19.12 22L18.06 22L15.55 15.43L15.69 19.19L15.69 22ZM28.49 22L26.95 22L30.17 13.47L31.50 13.47L34.73 22L33.18 22L32.49 20.01L29.18 20.01L28.49 22ZM30.83 15.28L29.60 18.82L32.07 18.82L30.83 15.28ZM41.14 22L38.69 22L38.69 13.47L41.21 13.47Q42.34 13.47 43.21 13.97Q44.09 14.48 44.57 15.40Q45.05 16.33 45.05 17.52L45.05 17.52L45.05 17.95Q45.05 19.16 44.57 20.08Q44.08 21.00 43.19 21.50Q42.30 22 41.14 22L41.14 22ZM40.17 14.66L40.17 20.82L41.14 20.82Q42.30 20.82 42.93 20.09Q43.55 19.36 43.56 17.99L43.56 17.99L43.56 17.52Q43.56 16.13 42.96 15.40Q42.35 14.66 41.21 14.66L41.21 14.66L40.17 14.66ZM55.09 22L49.51 22L49.51 13.47L55.05 13.47L55.05 14.66L51.00 14.66L51.00 17.02L54.50 17.02L54.50 18.19L51.00 18.19L51.00 20.82L55.09 20.82L55.09 22ZM66.65 22L64.68 13.47L66.15 13.47L67.47 19.88L69.10 13.47L70.34 13.47L71.96 19.89L73.27 13.47L74.74 13.47L72.77 22L71.35 22L69.73 15.77L68.07 22L66.65 22ZM80.38 22L78.90 22L78.90 13.47L80.38 13.47L80.38 22ZM86.87 14.66L84.23 14.66L84.23 13.47L91.00 13.47L91.00 14.66L88.34 14.66L88.34 22L86.87 22L86.87 14.66ZM96.24 22L94.75 22L94.75 13.47L96.24 13.47L96.24 17.02L100.05 17.02L100.05 13.47L101.53 13.47L101.53 22L100.05 22L100.05 18.21L96.24 18.21L96.24 22ZM117.60 22L112.24 22L112.24 13.47L113.73 13.47L113.73 20.82L117.60 20.82L117.60 22ZM121.46 18.00L121.46 18.00L121.46 17.52Q121.46 16.28 121.90 15.32Q122.34 14.37 123.15 13.86Q123.95 13.35 124.99 13.35Q126.04 13.35 126.84 13.85Q127.65 14.35 128.09 15.29Q128.53 16.23 128.53 17.48L128.53 17.48L128.53 17.96Q128.53 19.21 128.10 20.16Q127.67 21.10 126.86 21.61Q126.06 22.12 125.01 22.12L125.01 22.12Q123.97 22.12 123.16 21.61Q122.35 21.10 121.90 20.17Q121.46 19.23 121.46 18.00ZM122.94 17.46L122.94 17.96Q122.94 19.36 123.49 20.13Q124.03 20.90 125.01 20.90L125.01 20.90Q125.99 20.90 126.52 20.15Q127.05 19.40 127.05 17.96L127.05 17.96L127.05 17.51Q127.05 16.09 126.52 15.34Q125.98 14.58 124.99 14.58L124.99 14.58Q124.03 14.58 123.49 15.33Q122.95 16.09 122.94 17.46L122.94 17.46ZM135.30 22L132.24 13.47L133.86 13.47L136.00 20.14L138.17 13.47L139.80 13.47L136.73 22L135.30 22ZM149.33 22L143.75 22L143.75 13.47L149.29 13.47L149.29 14.66L145.23 14.66L145.23 17.02L148.74 17.02L148.74 18.19L145.23 18.19L145.23 20.82L149.33 20.82L149.33 22Z" fill="#FFFFFF"/><path class="svg__text" d="M177.68 22L175.30 22L175.30 13.60L177.68 13.60L177.68 22ZM185.18 22L182.85 22L182.85 13.60L184.81 13.60L188.52 18.07L188.52 13.60L190.84 13.60L190.84 22L188.89 22L185.18 17.52L185.18 22ZM205.36 22L202.98 22L202.98 13.60L205.36 13.60L205.36 22ZM212.86 22L210.53 22L210.53 13.60L212.49 13.60L216.20 18.07L216.20 13.60L218.52 13.60L218.52 22L216.57 22L212.86 17.52L212.86 22ZM227.66 22L223.68 22L223.68 13.60L227.66 13.60Q229.04 13.60 230.11 14.12Q231.17 14.63 231.76 15.58Q232.35 16.53 232.35 17.80L232.35 17.80Q232.35 19.07 231.76 20.02Q231.17 20.97 230.11 21.48Q229.04 22 227.66 22L227.66 22ZM226.06 15.50L226.06 20.10L227.56 20.10Q228.64 20.10 229.29 19.49Q229.95 18.88 229.95 17.80L229.95 17.80Q229.95 16.72 229.29 16.11Q228.64 15.50 227.56 15.50L227.56 15.50L226.06 15.50ZM239.46 22L237.08 22L237.08 13.60L239.46 13.60L239.46 22ZM246.05 22L243.62 22L247.33 13.60L249.68 13.60L253.39 22L250.92 22L250.26 20.37L246.71 20.37L246.05 22ZM248.49 15.93L247.40 18.61L249.57 18.61L248.49 15.93Z" fill="#FFFFFF" x="174.11"/></svg>