<svg xmlns="http://www.w3.org/2000/svg" width="129.6" height="35" viewBox="0 0 129.6 35"><rect class="svg__rect" x="0" y="0" width="129.6" height="35" fill="#FF6A00"/><rect class="svg__rect" x="129.6" y="0" width="0" height="35" fill="#68B92D"/><path class="svg__text" d="M16.25 14.66L13.61 14.66L13.61 13.47L20.38 13.47L20.38 14.66L17.72 14.66L17.72 22L16.25 22L16.25 14.66ZM29.72 22L24.14 22L24.14 13.47L29.67 13.47L29.67 14.66L25.62 14.66L25.62 17.02L29.12 17.02L29.12 18.19L25.62 18.19L25.62 20.82L29.72 20.82L29.72 22ZM35.39 22L33.91 22L33.91 13.47L35.39 13.47L39.21 19.54L39.21 13.47L40.68 13.47L40.68 22L39.20 22L35.39 15.95L35.39 22ZM44.98 19.42L44.98 19.42L46.47 19.42Q46.47 20.15 46.95 20.55Q47.43 20.95 48.32 20.95L48.32 20.95Q49.10 20.95 49.49 20.63Q49.88 20.32 49.88 19.80L49.88 19.80Q49.88 19.24 49.48 18.94Q49.09 18.63 48.06 18.32Q47.02 18.01 46.41 17.63L46.41 17.63Q45.25 16.90 45.25 15.72L45.25 15.72Q45.25 14.69 46.09 14.02Q46.93 13.35 48.27 13.35L48.27 13.35Q49.16 13.35 49.86 13.68Q50.56 14.01 50.96 14.61Q51.35 15.22 51.35 15.96L51.35 15.96L49.88 15.96Q49.88 15.29 49.46 14.91Q49.04 14.54 48.26 14.54L48.26 14.54Q47.53 14.54 47.13 14.85Q46.73 15.16 46.73 15.71L46.73 15.71Q46.73 16.18 47.16 16.50Q47.60 16.81 48.59 17.10Q49.59 17.40 50.19 17.78Q50.80 18.16 51.08 18.65Q51.36 19.13 51.36 19.79L51.36 19.79Q51.36 20.86 50.54 21.49Q49.73 22.12 48.32 22.12L48.32 22.12Q47.40 22.12 46.62 21.77Q45.85 21.43 45.42 20.83Q44.98 20.22 44.98 19.42ZM55.38 18.00L55.38 18.00L55.38 17.52Q55.38 16.28 55.82 15.32Q56.26 14.37 57.07 13.86Q57.88 13.35 58.92 13.35Q59.96 13.35 60.77 13.85Q61.57 14.35 62.01 15.29Q62.45 16.23 62.46 17.48L62.46 17.48L62.46 17.96Q62.46 19.21 62.02 20.16Q61.59 21.10 60.78 21.61Q59.98 22.12 58.93 22.12L58.93 22.12Q57.89 22.12 57.08 21.61Q56.27 21.10 55.83 20.17Q55.39 19.23 55.38 18.00ZM56.86 17.46L56.86 17.96Q56.86 19.36 57.41 20.13Q57.96 20.90 58.93 20.90L58.93 20.90Q59.91 20.90 60.44 20.15Q60.98 19.40 60.98 17.96L60.98 17.96L60.98 17.51Q60.98 16.09 60.44 15.34Q59.90 14.58 58.92 14.58L58.92 14.58Q57.96 14.58 57.42 15.33Q56.87 16.09 56.86 17.46L56.86 17.46ZM68.40 22L66.92 22L66.92 13.47L69.92 13.47Q71.40 13.47 72.20 14.13Q73.00 14.79 73.00 16.05L73.00 16.05Q73.00 16.90 72.59 17.48Q72.18 18.06 71.44 18.37L71.44 18.37L73.36 21.92L73.36 22L71.77 22L70.06 18.71L68.40 18.71L68.40 22ZM68.40 14.66L68.40 17.52L69.93 17.52Q70.68 17.52 71.10 17.15Q71.52 16.77 71.52 16.11L71.52 16.11Q71.52 15.43 71.13 15.05Q70.74 14.68 69.97 14.66L69.97 14.66L68.40 14.66ZM78.88 22L77.40 22L77.40 13.47L82.82 13.47L82.82 14.66L78.88 14.66L78.88 17.20L82.31 17.20L82.31 18.38L78.88 18.38L78.88 22ZM92.33 22L86.98 22L86.98 13.47L88.46 13.47L88.46 20.82L92.33 20.82L92.33 22ZM96.19 18.00L96.19 18.00L96.19 17.52Q96.19 16.28 96.63 15.32Q97.07 14.37 97.88 13.86Q98.69 13.35 99.73 13.35Q100.77 13.35 101.58 13.85Q102.38 14.35 102.82 15.29Q103.26 16.23 103.27 17.48L103.27 17.48L103.27 17.96Q103.27 19.21 102.83 20.16Q102.40 21.10 101.60 21.61Q100.79 22.12 99.74 22.12L99.74 22.12Q98.70 22.12 97.89 21.61Q97.08 21.10 96.64 20.17Q96.20 19.23 96.19 18.00ZM97.67 17.46L97.67 17.96Q97.67 19.36 98.22 20.13Q98.77 20.90 99.74 20.90L99.74 20.90Q100.72 20.90 101.26 20.15Q101.79 19.40 101.79 17.96L101.79 17.96L101.79 17.51Q101.79 16.09 101.25 15.34Q100.71 14.58 99.73 14.58L99.73 14.58Q98.77 14.58 98.23 15.33Q97.68 16.09 97.67 17.46L97.67 17.46ZM109.12 22L107.15 13.47L108.62 13.47L109.94 19.88L111.57 13.47L112.81 13.47L114.42 19.89L115.74 13.47L117.21 13.47L115.24 22L113.82 22L112.20 15.77L110.54 22L109.12 22Z" fill="#FFFFFF"/><path class="svg__text" d="" fill="#FFFFFF" x="142.6"/></svg>